<?xml version="1.0" encoding="utf-8"?>
<!-- Generator: Adobe Illustrator 24.3.0, SVG Export Plug-In . SVG Version: 6.00 Build 0)  -->
<svg version="1.1" id="Layer_1" xmlns="http://www.w3.org/2000/svg" xmlns:xlink="http://www.w3.org/1999/xlink" x="0px" y="0px"
	 viewBox="0 0 115.47 32.82" style="enable-background:new 0 0 115.47 32.82;" xml:space="preserve">
<style type="text/css">
	.st0{fill:#D3B47D;}
</style>
<g>
	<path class="st0" d="M16.41,16.42c0-0.01,0-0.01,0-0.02c0,0,0,0,0,0L16.41,16.42z"/>
	<path class="st0" d="M32.74,14.8c-0.05-0.54-0.13-1.07-0.24-1.59c-0.11-0.53-0.24-1.05-0.39-1.56c-0.16-0.51-0.34-1.02-0.54-1.52
		c-0.21-0.5-0.44-0.98-0.69-1.46c-0.25-0.47-0.53-0.93-0.83-1.38c-0.3-0.45-0.62-0.88-0.96-1.29s-0.7-0.81-1.08-1.19
		c-0.38-0.38-0.78-0.74-1.19-1.08c-0.42-0.34-0.85-0.66-1.29-0.96c-0.45-0.3-0.91-0.57-1.38-0.83c-0.47-0.25-0.96-0.48-1.46-0.69
		c-0.5-0.21-1-0.39-1.52-0.54c-0.51-0.16-1.04-0.29-1.56-0.39c-0.53-0.11-1.06-0.18-1.59-0.24C17.48,0.03,16.95,0,16.41,0
		c-0.54,0-1.07,0.03-1.61,0.08c-0.53,0.05-1.07,0.13-1.59,0.24c-0.53,0.1-1.05,0.24-1.56,0.39c-0.51,0.16-1.02,0.34-1.52,0.54
		c-0.5,0.21-0.98,0.43-1.46,0.69C8.2,2.19,7.74,2.47,7.29,2.77C6.85,3.07,6.41,3.39,6,3.73c-0.42,0.34-0.81,0.7-1.19,1.08
		C4.43,5.19,4.07,5.58,3.72,6C3.38,6.42,3.06,6.85,2.76,7.29C2.47,7.74,2.19,8.2,1.94,8.68c-0.25,0.47-0.48,0.96-0.69,1.46
		c-0.21,0.5-0.39,1-0.54,1.52c-0.16,0.51-0.29,1.03-0.39,1.56c-0.1,0.53-0.18,1.06-0.24,1.59C0.03,15.34,0,15.88,0,16.41
		c0,0.54,0.03,1.07,0.08,1.61c0.05,0.53,0.13,1.07,0.24,1.59c0.11,0.53,0.24,1.05,0.39,1.56c0.16,0.51,0.34,1.02,0.54,1.52
		c0.21,0.5,0.44,0.98,0.69,1.46c0.25,0.47,0.53,0.93,0.83,1.38c0.3,0.45,0.62,0.88,0.96,1.29c0.34,0.42,0.7,0.81,1.08,1.19
		C5.19,28.4,5.58,28.76,6,29.1c0.41,0.34,0.85,0.66,1.29,0.96c0.45,0.3,0.91,0.58,1.38,0.83c0.47,0.25,0.96,0.48,1.46,0.69
		c0.5,0.21,1,0.39,1.52,0.54c0.51,0.16,1.04,0.29,1.56,0.39c0.53,0.1,1.06,0.18,1.59,0.24c0.54,0.05,1.07,0.08,1.61,0.08
		c0.54,0,1.07-0.03,1.61-0.08c0.53-0.05,1.07-0.13,1.59-0.24c0.53-0.11,1.05-0.24,1.56-0.39c0.51-0.16,1.02-0.34,1.52-0.54
		c0.5-0.21,0.98-0.43,1.46-0.69c0.47-0.25,0.93-0.53,1.38-0.83c0.45-0.3,0.88-0.62,1.29-0.96c0.42-0.34,0.81-0.7,1.19-1.08
		c0.38-0.38,0.74-0.78,1.08-1.19c0.34-0.42,0.66-0.85,0.96-1.29c0.3-0.45,0.57-0.91,0.83-1.38c0.25-0.47,0.48-0.96,0.69-1.46
		c0.21-0.5,0.39-1,0.54-1.52c0.16-0.51,0.29-1.04,0.39-1.56c0.11-0.53,0.18-1.06,0.24-1.59c0.05-0.54,0.08-1.07,0.08-1.61
		C32.82,15.88,32.8,15.34,32.74,14.8 M32.18,17.96c-0.05,0.52-0.13,1.03-0.23,1.54c-0.1,0.51-0.23,1.01-0.38,1.51
		c-0.15,0.5-0.33,0.98-0.52,1.46c-0.2,0.48-0.42,0.95-0.67,1.4c-0.24,0.46-0.51,0.9-0.8,1.33c-0.29,0.43-0.6,0.85-0.93,1.25
		s-0.68,0.79-1.04,1.15c-0.37,0.37-0.75,0.72-1.15,1.04c-0.4,0.33-0.82,0.64-1.25,0.93s-0.88,0.56-1.33,0.8
		c-0.46,0.24-0.93,0.47-1.4,0.66c-0.48,0.2-0.97,0.37-1.46,0.53s-1,0.28-1.51,0.38c-0.51,0.1-1.02,0.18-1.54,0.23
		c-0.52,0.05-1.03,0.08-1.55,0.08c-0.52,0-1.04-0.03-1.55-0.08c-0.52-0.05-1.03-0.13-1.54-0.23c-0.51-0.1-1.01-0.23-1.51-0.38
		c-0.5-0.15-0.99-0.33-1.47-0.52c-0.48-0.2-0.95-0.42-1.41-0.67c-0.46-0.24-0.9-0.51-1.33-0.8c-0.43-0.29-0.85-0.6-1.25-0.93
		c-0.4-0.33-0.78-0.68-1.15-1.04c-0.37-0.37-0.71-0.75-1.04-1.15c-0.33-0.4-0.64-0.82-0.93-1.25c-0.29-0.43-0.56-0.88-0.8-1.33
		c-0.24-0.46-0.47-0.93-0.67-1.41C1.57,22,1.4,21.51,1.24,21.01c-0.15-0.5-0.28-1-0.38-1.51c-0.1-0.51-0.18-1.02-0.23-1.54
		c-0.05-0.52-0.08-1.04-0.08-1.55c0-0.52,0.03-1.04,0.08-1.55c0.05-0.52,0.13-1.03,0.23-1.54c0.1-0.51,0.23-1.01,0.38-1.51
		c0.15-0.5,0.33-0.98,0.52-1.46c0.2-0.48,0.42-0.95,0.67-1.41c0.24-0.46,0.51-0.9,0.8-1.33c0.29-0.43,0.6-0.85,0.93-1.25
		c0.33-0.4,0.68-0.79,1.04-1.15c0.37-0.37,0.75-0.72,1.15-1.04c0.4-0.33,0.82-0.64,1.25-0.93c0.43-0.29,0.88-0.55,1.33-0.8
		c0.46-0.24,0.93-0.47,1.41-0.67c0.48-0.2,0.97-0.37,1.47-0.52c0.5-0.15,1-0.28,1.51-0.38c0.51-0.1,1.02-0.18,1.54-0.23
		c0.52-0.05,1.03-0.08,1.55-0.08c0.52,0,1.04,0.02,1.55,0.08s1.03,0.13,1.54,0.23c0.51,0.1,1.01,0.23,1.51,0.38
		c0.5,0.15,0.99,0.32,1.46,0.52c0.48,0.2,0.95,0.42,1.41,0.67c0.46,0.25,0.9,0.51,1.33,0.8c0.43,0.29,0.85,0.6,1.25,0.93
		c0.4,0.33,0.78,0.68,1.15,1.04c0.37,0.37,0.71,0.75,1.04,1.15c0.33,0.4,0.64,0.82,0.93,1.25c0.29,0.43,0.55,0.88,0.8,1.33
		c0.24,0.46,0.47,0.93,0.67,1.41c0.2,0.48,0.37,0.97,0.52,1.46c0.15,0.5,0.28,1,0.38,1.51c0.1,0.51,0.18,1.02,0.23,1.54
		c0.05,0.52,0.08,1.03,0.08,1.55C32.26,16.93,32.23,17.45,32.18,17.96"/>
	<path class="st0" d="M31,13.51c-0.1-0.48-0.21-0.95-0.36-1.42c-0.14-0.47-0.31-0.92-0.49-1.37c-0.19-0.45-0.39-0.89-0.62-1.32
		c-0.23-0.43-0.48-0.85-0.75-1.25c-0.27-0.4-0.56-0.8-0.87-1.17s-0.64-0.74-0.98-1.08c-0.35-0.35-0.71-0.67-1.08-0.98
		c-0.38-0.31-0.77-0.6-1.17-0.87c-0.41-0.27-0.82-0.52-1.25-0.75c-0.43-0.23-0.87-0.44-1.32-0.62c-0.45-0.19-0.91-0.35-1.37-0.49
		c-0.47-0.14-0.94-0.26-1.42-0.36c-0.48-0.1-0.96-0.17-1.44-0.22c-0.48-0.05-0.97-0.07-1.46-0.07c-0.49,0-0.97,0.02-1.46,0.07
		c-0.49,0.05-0.97,0.12-1.44,0.21c-0.48,0.09-0.95,0.21-1.42,0.35c-0.47,0.14-0.92,0.31-1.37,0.49C10.27,2.86,9.83,3.06,9.4,3.29
		C8.97,3.52,8.55,3.77,8.15,4.04c-0.4,0.27-0.8,0.56-1.17,0.87C6.6,5.22,6.24,5.55,5.89,5.89C5.55,6.24,5.22,6.6,4.91,6.98
		s-0.6,0.77-0.87,1.17C3.77,8.55,3.52,8.97,3.29,9.4c-0.23,0.43-0.44,0.87-0.62,1.32c-0.19,0.45-0.35,0.91-0.49,1.37
		c-0.14,0.47-0.26,0.94-0.35,1.42c-0.1,0.48-0.17,0.96-0.21,1.44c-0.05,0.49-0.07,0.97-0.07,1.46s0.02,0.97,0.07,1.46
		c0.05,0.49,0.12,0.97,0.21,1.44s0.21,0.95,0.35,1.42c0.14,0.47,0.31,0.92,0.49,1.37c0.19,0.45,0.39,0.89,0.62,1.32
		c0.23,0.43,0.48,0.85,0.75,1.25c0.27,0.4,0.56,0.8,0.87,1.17c0.31,0.38,0.64,0.74,0.98,1.08c0.35,0.35,0.71,0.67,1.08,0.98
		c0.38,0.31,0.77,0.6,1.17,0.87c0.4,0.27,0.82,0.52,1.25,0.75c0.43,0.23,0.87,0.44,1.32,0.62c0.45,0.19,0.91,0.35,1.37,0.49
		c0.47,0.14,0.94,0.26,1.42,0.35c0.48,0.1,0.96,0.17,1.44,0.21c0.49,0.05,0.97,0.07,1.46,0.07c0.49,0,0.97-0.02,1.46-0.07
		c0.49-0.05,0.97-0.12,1.44-0.21c0.48-0.09,0.95-0.21,1.42-0.35c0.47-0.14,0.92-0.31,1.37-0.49c0.45-0.19,0.89-0.39,1.32-0.62
		c0.43-0.23,0.85-0.48,1.25-0.75c0.4-0.27,0.8-0.56,1.17-0.87c0.38-0.31,0.74-0.64,1.08-0.98c0.34-0.34,0.67-0.7,0.98-1.08
		c0.31-0.38,0.6-0.77,0.87-1.17c0.27-0.4,0.52-0.82,0.75-1.25c0.23-0.43,0.44-0.87,0.62-1.32c0.19-0.45,0.35-0.91,0.49-1.37
		c0.14-0.47,0.26-0.94,0.35-1.42s0.17-0.96,0.21-1.44c0.05-0.49,0.07-0.97,0.07-1.46c0-0.49-0.02-0.97-0.07-1.46
		C31.17,14.47,31.09,13.99,31,13.51 M28.37,8.57c0.96,1.46,1.64,3.04,2.02,4.74v0.01c-0.87-0.23-1.76-0.35-2.66-0.34
		c-0.49,0-0.97,0.03-1.45,0.1c-0.05-0.32-0.13-0.63-0.23-0.94c0.6-0.43,1.1-0.95,1.5-1.56C27.95,9.96,28.22,9.29,28.37,8.57
		 M27.21,10.05c-0.36,0.6-0.81,1.11-1.37,1.53c-0.37-0.85-0.92-1.58-1.64-2.17c1.16-0.96,2.62-1.24,3.7-1.3
		C27.79,8.8,27.56,9.45,27.21,10.05 M10.02,9.2c0.41-0.2,0.84-0.35,1.29-0.44v0.01c0.37,0.5,0.66,1.04,0.89,1.62
		c-1.5,0.04-3.52,0.53-4.84,1.79c0.15-0.43,0.36-0.84,0.62-1.22c0.26-0.38,0.56-0.72,0.91-1.02C9.23,9.65,9.61,9.4,10.02,9.2
		 M6.84,7.87c1.24-0.03,2.46,0.15,3.64,0.54C9.99,8.57,9.53,8.79,9.1,9.07v0.01C8.44,8.51,7.68,8.1,6.84,7.87 M22.8,9.2
		c0.41,0.2,0.79,0.45,1.14,0.75c0.35,0.3,0.65,0.64,0.91,1.01c0.26,0.38,0.47,0.78,0.62,1.21v0.01c-1.32-1.26-3.35-1.76-4.84-1.79
		c0.22-0.58,0.51-1.12,0.88-1.62C21.96,8.86,22.39,9,22.8,9.2 M22.36,8.41L22.36,8.41C22.36,8.41,22.36,8.41,22.36,8.41
		c1.18-0.39,2.39-0.57,3.62-0.55c-0.84,0.24-1.6,0.64-2.26,1.21C23.3,8.8,22.85,8.58,22.36,8.41C22.37,8.41,22.36,8.41,22.36,8.41
		 M25.4,12.93L25.4,12.93c-1.06-0.22-2.12-0.27-3.2-0.15c-1.08,0.12-2.11,0.41-3.09,0.86c-0.42-0.14-0.81-0.33-1.17-0.6
		c0.62-0.9,1.41-1.6,2.38-2.09C22.02,10.91,24.27,11.52,25.4,12.93 M18.46,13.98L18.46,13.98c-0.78,0.46-1.43,1.06-1.95,1.79
		l-0.09,0.14c-0.03-0.04-0.06-0.09-0.09-0.14c-0.52-0.74-1.17-1.33-1.95-1.79c0.84-0.38,1.52-0.96,2.04-1.72
		C16.94,13.03,17.62,13.6,18.46,13.98 M19.48,21.42L19.48,21.42c-0.99,0.34-2.01,0.51-3.06,0.51c-1.05,0-2.07-0.17-3.06-0.5
		c0-1.95,0.68-3.88,1.81-5.21c0.39,0.12,0.76,0.29,1.11,0.5c0.1,0.06,0.2,0.06,0.3,0c0.35-0.21,0.72-0.38,1.11-0.5
		C18.8,17.54,19.47,19.47,19.48,21.42 M18.27,16.05L18.27,16.05c1.03-0.21,2.07-0.22,3.1-0.03c-0.64,0.66-1.42,1.07-2.33,1.23
		C18.82,16.83,18.56,16.43,18.27,16.05 M19.07,22.16c-0.07,0.11-0.14,0.22-0.23,0.33c-0.08,0.1-0.17,0.2-0.27,0.29
		c-0.1,0.09-0.2,0.18-0.3,0.26c-0.11,0.08-0.22,0.15-0.33,0.22c-0.12,0.07-0.24,0.12-0.36,0.17c-0.12,0.05-0.25,0.09-0.38,0.13
		c-0.13,0.03-0.26,0.06-0.39,0.08c-0.13,0.02-0.26,0.03-0.4,0.03c-0.13,0-0.27-0.01-0.4-0.03c-0.13-0.02-0.26-0.04-0.39-0.08
		c-0.13-0.03-0.26-0.08-0.38-0.13c-0.12-0.05-0.24-0.11-0.36-0.17c-0.12-0.07-0.23-0.14-0.33-0.22c-0.11-0.08-0.21-0.17-0.3-0.26
		c-0.1-0.09-0.18-0.19-0.27-0.29c-0.08-0.11-0.16-0.21-0.23-0.33C15.53,22.62,17.3,22.62,19.07,22.16 M13.79,17.26
		c-0.91-0.16-1.69-0.57-2.33-1.23c1.03-0.19,2.07-0.18,3.1,0.04c-0.29,0.37-0.55,0.76-0.77,1.18L13.79,17.26z M13.72,13.63
		l0.01,0.01c-1.34-0.62-2.75-0.93-4.23-0.92c-0.7,0-1.39,0.07-2.08,0.22c1.14-1.41,3.39-2.02,5.09-1.99
		c0.97,0.49,1.77,1.19,2.38,2.09C14.54,13.31,14.15,13.5,13.72,13.63 M15.61,15.77l0,0.01c-2.15-0.81-5.09-0.52-6.46,0.65
		c-1.14-0.73-1.81-1.66-2.05-2.83C9.84,12.81,13.75,13.51,15.61,15.77 M9.46,16.91l0.01,0.01c0.4-0.35,0.87-0.6,1.39-0.74
		c0.34,0.41,0.74,0.75,1.2,1.02c0.46,0.27,0.95,0.46,1.48,0.56c-0.5,1.18-0.76,2.4-0.75,3.68c-0.43,0.27-0.77,0.62-1.03,1.05
		C10.01,20.99,9.19,19.01,9.46,16.91 M12.96,21.99l0.01,0.02c0.64,1.09,1.99,1.84,3.11,2.14c-0.1,0.34-0.26,0.65-0.49,0.93
		s-0.49,0.5-0.8,0.68c-0.42,0.24-0.87,0.39-1.35,0.46c-0.48,0.07-0.95,0.05-1.42-0.06c-0.17-0.54-0.24-1.1-0.24-1.67
		C11.8,23.72,12.02,22.7,12.96,21.99 M16.41,24.81l0,0.02c0.14,0.28,0.32,0.54,0.53,0.78c-0.35-0.04-0.71-0.04-1.06,0
		C16.1,25.37,16.28,25.11,16.41,24.81 M16.76,24.17l0-0.02C16.76,24.15,16.76,24.16,16.76,24.17c1.13-0.3,2.47-1.06,3.11-2.14
		c0.94,0.68,1.17,1.72,1.17,2.48c0.01,0.57-0.07,1.12-0.23,1.67c-0.47,0.11-0.95,0.13-1.42,0.06c-0.48-0.07-0.93-0.22-1.35-0.46
		c-0.31-0.18-0.58-0.4-0.8-0.69C17.02,24.81,16.86,24.5,16.76,24.17C16.76,24.17,16.76,24.17,16.76,24.17 M20.04,21.44
		c0,0.01,0,0.01,0,0.02L20.04,21.44C20.04,21.44,20.04,21.44,20.04,21.44c0-1.27-0.25-2.49-0.75-3.66c0.53-0.1,1.02-0.29,1.48-0.57
		c0.46-0.27,0.86-0.62,1.21-1.03c0.52,0.14,0.98,0.39,1.39,0.74c0.27,2.1-0.54,4.07-2.29,5.58C20.82,22.08,20.47,21.72,20.04,21.44
		 M19.9,15.31l0,0.02c-0.92,0-1.82,0.15-2.69,0.47c1.86-2.26,5.78-2.96,8.51-2.18c-0.24,1.17-0.91,2.1-2.05,2.83
		C22.83,15.7,21.39,15.31,19.9,15.31 M27.54,7.42l0,0.02c-1.79-0.26-3.55-0.12-5.27,0.43c1.01-1.09,2.3-2.02,3.34-2.39
		C26.31,6.06,26.95,6.71,27.54,7.42 M21.23,2.95c1.4,0.5,2.69,1.19,3.87,2.09l0,0.02c-1.75,0.76-4.01,2.77-4.9,4.9
		C19.23,7.68,19.95,4.61,21.23,2.95 M16.7,2.12c1.35,0.02,2.67,0.23,3.97,0.63c-1.3,1.83-2,5.09-0.96,7.49
		c-0.22-0.07-0.44-0.16-0.64-0.26c-0.21-0.11-0.41-0.23-0.59-0.36c-0.19-0.14-0.36-0.29-0.53-0.46C17.78,9,17.63,8.82,17.49,8.63
		c-0.14-0.19-0.25-0.39-0.36-0.6s-0.19-0.43-0.26-0.65c-0.07-0.22-0.12-0.45-0.15-0.68s-0.04-0.46-0.04-0.7L16.7,2.12z M16.42,7.75
		c0.13,0.35,0.29,0.68,0.5,1c0.2,0.31,0.44,0.6,0.71,0.86c0.27,0.26,0.56,0.49,0.88,0.68c0.32,0.19,0.66,0.35,1.01,0.47l0.01,0.02
		c-0.81,0.49-1.48,1.13-2.01,1.91c-0.33-0.32-0.61-0.68-0.84-1.08c-0.03-0.04-0.06-0.08-0.1-0.1c-0.04-0.02-0.09-0.04-0.14-0.04
		c-0.05,0-0.1,0.01-0.14,0.04c-0.04,0.02-0.08,0.06-0.1,0.1c-0.23,0.4-0.51,0.76-0.84,1.08c-0.53-0.78-1.2-1.42-2.01-1.91
		c0.36-0.12,0.69-0.28,1.01-0.47c0.32-0.2,0.61-0.43,0.88-0.69c0.27-0.26,0.5-0.55,0.71-0.87C16.13,8.44,16.29,8.11,16.42,7.75
		 M16.13,2.1l0,0.02v3.9c0.01,0.23-0.01,0.46-0.04,0.7c-0.03,0.23-0.08,0.46-0.15,0.68c-0.07,0.22-0.15,0.44-0.26,0.65
		c-0.1,0.21-0.22,0.41-0.36,0.6c-0.13,0.19-0.28,0.37-0.45,0.53c-0.16,0.17-0.34,0.32-0.53,0.45c-0.19,0.14-0.39,0.26-0.59,0.36
		c-0.21,0.11-0.42,0.19-0.65,0.26c1.05-2.4,0.35-5.67-0.96-7.49C13.46,2.36,14.78,2.14,16.13,2.1 M11.6,2.93l0,0.02
		c1.28,1.66,2,4.72,1.03,7.01c-0.89-2.14-3.14-4.14-4.9-4.9C8.91,4.15,10.2,3.44,11.6,2.93 M7.22,5.45l0,0.02
		c1.03,0.37,2.32,1.3,3.34,2.39C9.41,7.49,8.23,7.31,7.02,7.31c-0.58,0-1.15,0.04-1.72,0.12C5.87,6.71,6.52,6.05,7.22,5.45
		 M8.63,9.41l0,0.02c-0.72,0.59-1.27,1.31-1.64,2.17c-0.55-0.42-1.01-0.93-1.36-1.53c-0.35-0.6-0.58-1.24-0.68-1.93
		C6.02,8.17,7.47,8.45,8.63,9.41 M4.45,8.56l0,0.02c0.15,0.72,0.42,1.39,0.82,2c0.4,0.62,0.9,1.14,1.5,1.56
		c-0.1,0.31-0.18,0.62-0.24,0.94c-1.38-0.2-2.75-0.12-4.11,0.24C2.81,11.61,3.48,10.02,4.45,8.56 M2.1,16.41l0.01,0.02
		c0-0.83,0.07-1.65,0.21-2.47c1.39-0.41,2.79-0.51,4.22-0.29c0.11,0.55,0.31,1.06,0.59,1.54c0.29,0.48,0.65,0.9,1.09,1.25
		c-1.07-0.02-2.12,0.13-3.15,0.45c-1.03,0.32-1.97,0.78-2.85,1.4C2.14,17.68,2.1,17.05,2.1,16.41 M2.32,18.91l0.01,0.02
		c0.92-0.68,1.94-1.19,3.04-1.51c1.1-0.32,2.23-0.44,3.38-0.37c-0.4,0.77-0.61,1.59-0.65,2.46c-0.88,0.37-1.69,0.86-2.43,1.46
		c-0.74,0.6-1.39,1.29-1.94,2.08C3.04,21.74,2.57,20.36,2.32,18.91 M6.76,26.98c-1.08-0.99-1.99-2.12-2.72-3.39c0,0,0,0,0,0
		l-0.01-0.02c0,0,0.01,0.01,0.01,0.01c0.5-0.76,1.1-1.43,1.79-2.03c0.69-0.59,1.45-1.07,2.28-1.45c0.07,0.99,0.35,1.91,0.84,2.78
		C7.9,24.08,7.17,25.45,6.76,26.98 M10.86,29.6l0.01,0.02c-1.32-0.56-2.54-1.3-3.64-2.23c0.36-1.49,1.03-2.83,2.02-4
		c0.49,0.72,1.08,1.35,1.77,1.89C10.63,26.71,10.58,28.15,10.86,29.6 M11.22,24.73c-1.69-1.43-3.17-3.87-2.36-6.52l0.01,0.02
		c0.14,1.83,1.04,3.48,2.63,4.81c-0.18,0.47-0.27,0.95-0.27,1.46V24.73z M11.5,29.86c0,0.01,0,0.01,0,0.02L11.5,29.86
		C11.5,29.86,11.5,29.86,11.5,29.86c-0.3-1.26-0.33-2.52-0.09-3.8c0.25,0.96,0.68,1.83,1.27,2.63c0.59,0.79,1.31,1.45,2.16,1.97
		C13.7,30.52,12.58,30.26,11.5,29.86 M13.58,28.9c-0.57-0.62-1.02-1.33-1.33-2.11c0,0,0,0,0,0l-0.01-0.02
		c0,0.01,0.01,0.01,0.01,0.02c0.66,0.1,1.31,0.05,1.95-0.15c0.15,1.38,0.62,2.63,1.39,3.78C14.83,30.04,14.16,29.53,13.58,28.9
		 M14.74,26.44l0.01,0.02c0.54-0.2,1.1-0.3,1.67-0.3c0.58,0,1.13,0.1,1.67,0.3c-0.08,1.56-0.88,3.17-1.67,4.14
		C15.62,29.61,14.82,28,14.74,26.44 M17.25,30.42c0.78-1.15,1.24-2.41,1.39-3.8l0.01,0.02c0.64,0.2,1.29,0.25,1.96,0.15
		c-0.32,0.79-0.77,1.49-1.34,2.12C18.68,29.53,18.01,30.04,17.25,30.42 M21.33,29.87c-1.08,0.4-2.19,0.65-3.34,0.78
		c0.85-0.52,1.57-1.17,2.16-1.97c0.59-0.79,1.02-1.67,1.27-2.63c0.24,1.27,0.2,2.54-0.1,3.79L21.33,29.87z M21.34,23.03
		C21.34,23.03,21.33,23.03,21.34,23.03l0-0.01C21.33,23.02,21.34,23.03,21.34,23.03c1.59-1.33,2.49-2.98,2.63-4.81
		c0.81,2.65-0.68,5.08-2.35,6.49v-0.24C21.61,23.98,21.52,23.5,21.34,23.03 M21.98,29.6l-0.01,0.02c0.29-1.46,0.23-2.9-0.16-4.33
		c0.69-0.54,1.28-1.17,1.77-1.89c0.99,1.17,1.67,2.51,2.02,4C24.5,28.31,23.3,29.05,21.98,29.6 M26.08,26.96v0.02
		c-0.41-1.53-1.14-2.9-2.19-4.09c0.5-0.86,0.78-1.79,0.84-2.78c0.83,0.38,1.59,0.86,2.28,1.45c0.69,0.59,1.29,1.27,1.79,2.03
		C28.06,24.85,27.15,25.98,26.08,26.96 M29.1,23.02v0.02c-0.55-0.78-1.19-1.47-1.94-2.08c-0.74-0.6-1.55-1.09-2.43-1.46
		c-0.04-0.87-0.25-1.69-0.65-2.46c1.15-0.08,2.27,0.04,3.38,0.37c1.1,0.32,2.12,0.83,3.04,1.51C30.25,20.36,29.78,21.73,29.1,23.02
		 M30.6,18.31c-0.85-0.61-1.78-1.07-2.77-1.39c-1-0.32-2.02-0.48-3.07-0.48v0.02H24.6c0.43-0.35,0.8-0.77,1.08-1.25
		c0.29-0.48,0.49-0.99,0.59-1.54c1.43-0.21,2.84-0.12,4.22,0.29c0.14,0.82,0.22,1.64,0.22,2.47C30.72,17.06,30.68,17.68,30.6,18.31"
		/>
	<path class="st0" d="M21.33,16.42C21.33,16.42,21.34,16.42,21.33,16.42c0-0.01,0-0.01,0-0.02V16.42z"/>
	<path class="st0" d="M12.24,16.42C12.24,16.42,12.24,16.42,12.24,16.42c0-0.01,0-0.01-0.01-0.02L12.24,16.42z"/>
	<path class="st0" d="M4.03,16.42C4.03,16.42,4.04,16.42,4.03,16.42c0-0.01,0-0.01-0.01-0.02L4.03,16.42z"/>
	<path class="st0" d="M20.04,16.42c0-0.01,0-0.01,0-0.02c0,0,0,0,0,0L20.04,16.42z"/>
	<path class="st0" d="M16.76,16.42C16.76,16.42,16.76,16.42,16.76,16.42c0-0.01,0-0.01-0.01-0.02L16.76,16.42z"/>
	<path class="st0" d="M22.36,16.42C22.36,16.41,22.37,16.41,22.36,16.42C22.37,16.41,22.36,16.41,22.36,16.42L22.36,16.42z"/>
</g>
<g>
	<path class="st0" d="M48.38,16.41h-4.84l-0.88,2.1h-1.97l4.35-9.91h1.97l4.29,9.91h-2.04L48.38,16.41z M47.7,14.79l-1.73-4.16
		l-1.75,4.16H47.7z"/>
	<polygon class="st0" points="57.02,8.6 57.02,16.8 61.3,16.8 61.3,18.51 55.12,18.51 55.12,8.6 	"/>
	<rect x="66.37" y="8.6" class="st0" width="1.9" height="9.91"/>
	<path class="st0" d="M79.8,18.51l-1.71-2.93c-0.11,0.01-0.23,0.01-0.35,0.01h-2.24v2.92h-1.9V8.6h4.13c2.56,0,4.02,1.23,4.02,3.41
		c0,1.56-0.7,2.68-1.97,3.22l2.18,3.28H79.8z M75.49,13.92h2.24c1.42,0,2.21-0.61,2.21-1.85c0-1.22-0.79-1.81-2.21-1.81h-2.24V13.92
		z"/>
	<rect x="86.73" y="8.6" class="st0" width="1.9" height="9.91"/>
	<polygon class="st0" points="101.62,8.6 101.62,9.93 95.79,16.85 101.69,16.85 101.69,18.51 93.23,18.51 93.23,17.17 99.06,10.26 
		93.4,10.26 93.41,8.6 	"/>
	<path class="st0" d="M112.55,16.41h-4.84l-0.88,2.1h-1.97l4.35-9.91h1.97l4.29,9.91h-2.04L112.55,16.41z M111.87,14.79l-1.73-4.16
		l-1.75,4.16H111.87z"/>
	<path class="st0" d="M68.62,28.98h0.61v1.37c-0.38,0.28-0.94,0.48-1.44,0.48c-1.09,0-1.93-0.81-1.93-1.86s0.86-1.85,1.97-1.85
		c0.53,0,1.06,0.2,1.43,0.52l-0.4,0.51c-0.28-0.26-0.66-0.41-1.03-0.41c-0.7,0-1.26,0.54-1.26,1.23c0,0.69,0.56,1.23,1.26,1.23
		c0.25,0,0.54-0.09,0.79-0.23V28.98z"/>
	<path class="st0" d="M73.49,30.79l-0.63-1.08c-0.04,0.01-0.08,0.01-0.13,0.01h-0.82v1.08h-0.7v-3.65h1.52
		c0.94,0,1.48,0.45,1.48,1.26c0,0.57-0.26,0.99-0.73,1.18l0.8,1.21H73.49z M71.91,29.1h0.82c0.52,0,0.81-0.22,0.81-0.68
		c0-0.45-0.29-0.67-0.81-0.67h-0.82V29.1z"/>
	<path class="st0" d="M79.65,28.97c0,1.05-0.85,1.86-1.95,1.86c-1.1,0-1.95-0.81-1.95-1.86c0-1.05,0.85-1.85,1.95-1.85
		C78.81,27.12,79.65,27.92,79.65,28.97 M76.47,28.97c0,0.69,0.57,1.23,1.24,1.23c0.67,0,1.22-0.54,1.22-1.23
		c0-0.69-0.55-1.22-1.22-1.22C77.04,27.74,76.47,28.28,76.47,28.97"/>
	<path class="st0" d="M83.02,30.2c0.55,0,0.9-0.34,0.9-0.93v-2.13h0.7v2.13c0,0.96-0.61,1.56-1.6,1.56c-1,0-1.62-0.6-1.62-1.56
		v-2.13h0.7v2.13C82.1,29.85,82.47,30.2,83.02,30.2"/>
	<path class="st0" d="M89.58,28.4c0,0.83-0.53,1.32-1.44,1.32h-0.8v1.07h-0.7v-3.65h1.5C89.06,27.14,89.58,27.59,89.58,28.4
		 M88.92,28.42c0-0.45-0.3-0.67-0.82-0.67h-0.76v1.35h0.76C88.62,29.1,88.92,28.88,88.92,28.42"/>
</g>
</svg>
